<?xml version="1.0"?>
<svg xmlns="http://www.w3.org/2000/svg" xmlns:xlink="http://www.w3.org/1999/xlink" xmlns:svgjs="http://svgjs.com/svgjs" version="1.1" width="512" height="512" x="0" y="0" viewBox="0 0 512 512" style="enable-background:new 0 0 512 512" xml:space="preserve" class=""><g><link type="text/css" rel="stylesheet" id="dark-mode-custom-link"/><link type="text/css" rel="stylesheet" id="dark-mode-general-link"/><style lang="en" type="text/css" id="dark-mode-custom-style"/><style lang="en" type="text/css" id="dark-mode-native-style"/><g xmlns="http://www.w3.org/2000/svg"><g><path d="m374.367 316.232c-13.389-27.075-7.391-38.513-2.196-68.386 5.195-29.872-18.397-53.9-18.397-53.9 4.326 11.364-4.981 26.842-4.981 26.842-33.404 46.693-81.499-8.659-37.34-33.985 41.61-23.865 43.834-84.746 0-105.995s-55.451-73.309-55.451-73.309c0 44.736 10.928 47.333 25.254 87.74 16.884 47.622-25.254 58.878-25.254 58.878s-20.69 3.95-31.027-17.75c-6.809-14.294 11.148-27.004-7.36-50.652 0 0-2.231 21.039-16.018 32.903-18.616 16.018-25.428 43.81 2.598 67.104 33.335 27.707-7.58 81.761-40.984 35.067 0 0-9.308-15.477-4.981-26.842 0 0-23.592 24.028-18.397 53.9s11.193 41.311-2.196 68.386c-8.303 17.227-12.957 36.543-12.957 56.947 0 72.527 58.795 131.321 131.321 131.321s131.321-58.795 131.321-131.321c.001-20.405-4.652-39.722-12.955-56.948z" fill="#ffd064" data-original="#ffd064" style="" class=""/></g><g><path d="m372.171 247.846c1.638-9.418.411-18.253-2.032-25.939-.059.092-32.379 50.645-25.567 82.761 6.819 32.145 45.926 140.557-88.57 199.832 72.527 0 131.321-58.795 131.321-131.321 0-20.404-4.653-39.72-12.957-56.947-13.389-27.075-7.39-38.514-2.195-68.386z" fill="#ecc32e" data-original="#ecc32e" style="" class=""/></g><g><g><path d="m461.46 112.615c-17.135-18.816-11.533-47.681 5.943-58.684 0 0-35.718 5.2-38.689 39.37-1.07 12.3 3.03 21.13 6.447 27.752-19.133 3.187-33.721 19.809-33.721 39.846 0 22.316 18.091 40.407 40.407 40.407s40.407-18.091 40.407-40.407c0-.001 0-.001 0-.002l.007.002c-.001 0 2.012-23.233-20.801-48.284z" fill="#e7a52e" data-original="#e7a52e" style="" class=""/></g><g><path d="m465.92 117.887c3.932 12.195 3.22 20.432 3.22 20.432l-.008-.002v.002c0 24.929-20.209 45.138-45.138 45.138-6.352 0-12.394-1.318-17.876-3.686 6.778 12.806 20.231 21.535 35.729 21.535 22.316 0 40.407-18.091 40.407-40.407 0-.001 0-.001 0-.002l.007.002c-.001 0 1.725-20.069-16.341-43.012z" fill="#e27d47" data-original="#e27d47" style="" class=""/></g></g><g><g><path d="m483.658 316.303c-17.135-18.816-11.533-47.681 5.943-58.684 0 0-35.718 5.2-38.689 39.37-1.07 12.3 3.03 21.13 6.447 27.752-19.133 3.187-33.721 19.809-33.721 39.846 0 22.316 18.091 40.407 40.407 40.407s40.407-18.091 40.407-40.407c0-.001 0-.001 0-.002l.007.002c-.002 0 2.011-23.233-20.801-48.284z" fill="#e7a52e" data-original="#e7a52e" style="" class=""/></g><g><path d="m488.117 321.575c3.932 12.195 3.22 20.432 3.22 20.432l-.008-.002v.002c0 24.929-20.209 45.138-45.138 45.138-6.352 0-12.394-1.318-17.876-3.686 6.778 12.806 20.231 21.535 35.729 21.535 22.316 0 40.407-18.091 40.407-40.407 0-.001 0-.001 0-.002l.007.002c-.001 0 1.725-20.069-16.341-43.012z" fill="#e27d47" data-original="#e27d47" style="" class=""/></g></g><g><g><path d="m89.72 112.615c-17.135-18.816-11.533-47.681 5.943-58.684 0 0-35.718 5.2-38.689 39.37-1.07 12.3 3.03 21.13 6.447 27.752-19.133 3.187-33.721 19.809-33.721 39.846 0 22.316 18.091 40.407 40.407 40.407s40.407-18.091 40.407-40.407c0-.001 0-.001 0-.002l.007.002c-.002 0 2.011-23.233-20.801-48.284z" fill="#e7a52e" data-original="#e7a52e" style="" class=""/></g><g><path d="m94.179 117.887c3.932 12.195 3.22 20.432 3.22 20.432l-.008-.002v.002c0 24.929-20.209 45.138-45.138 45.138-6.352 0-12.394-1.318-17.876-3.686 6.778 12.806 20.231 21.535 35.729 21.535 22.316 0 40.407-18.091 40.407-40.407 0-.001 0-.001 0-.002l.007.002c-.001 0 1.725-20.069-16.341-43.012z" fill="#e27d47" data-original="#e27d47" style="" class=""/></g></g><g><g><path d="m67.523 316.303c-17.135-18.816-11.533-47.681 5.943-58.684 0 0-35.718 5.2-38.689 39.37-1.07 12.3 3.03 21.13 6.447 27.752-19.134 3.188-33.722 19.809-33.722 39.846 0 22.316 18.091 40.407 40.407 40.407s40.407-18.091 40.407-40.407c0-.001 0-.001 0-.002l.007.002c-.001 0 2.012-23.233-20.8-48.284z" fill="#e7a52e" data-original="#e7a52e" style="" class=""/></g><g><path d="m71.982 321.575c3.932 12.195 3.22 20.432 3.22 20.432l-.008-.002v.002c0 24.929-20.209 45.138-45.138 45.138-6.352 0-12.394-1.318-17.876-3.686 6.778 12.806 20.231 21.535 35.729 21.535 22.316 0 40.407-18.091 40.407-40.407 0-.001 0-.001 0-.002l.007.002c-.001 0 1.725-20.069-16.341-43.012z" fill="#e27d47" data-original="#e27d47" style="" class=""/></g></g><g><path d="m328.294 322.126-54.217 23.778c0 17.853 14.473 32.325 32.325 32.325s32.325-14.473 32.325-32.325c0-9.406-4.021-17.871-10.433-23.778z" fill="#2b4d66" data-original="#2b4d66" style="" class=""/></g><g><path d="m183.674 322.126 54.217 23.778c0 17.853-14.473 32.325-32.325 32.325s-32.325-14.473-32.325-32.325c0-9.406 4.02-17.871 10.433-23.778z" fill="#2b4d66" data-original="#2b4d66" style="" class=""/></g><g><path d="m381.346 413.167c-3.868-1.483-8.205.451-9.687 4.319-18.226 47.56-64.705 79.514-115.657 79.514-68.275 0-123.821-55.546-123.821-123.82 0-9.456 1.065-18.867 3.168-27.975 2.048-8.876 5.091-17.526 9.016-25.651 12.297-24.88 9.544-38.735 5.376-59.709-.824-4.145-1.676-8.432-2.52-13.279-2.035-11.71 1.195-22.585 5.308-30.961 1.773 4.796 3.776 8.254 4.254 9.049.103.171.212.337.328.499 11.273 15.76 23.585 21.408 34.255 21.407 6.513-.001 12.416-2.106 17.094-5.302 14.28-9.757 21.909-32.227 9.333-51.516-2.262-3.469-6.908-4.448-10.379-2.186-3.47 2.262-4.448 6.909-2.186 10.379 7.383 11.323 3.256 25.139-5.23 30.937-9.103 6.219-20.484 1.666-30.492-12.176-1.985-3.453-6.54-13.562-4.355-19.85 3.28-7.354-6.865-14.042-12.314-8.107-1.07 1.103-26.128 27.4-20.394 60.396.875 5.026 1.783 9.599 2.585 13.633 3.947 19.86 5.928 29.829-4.14 50.199-4.44 9.19-7.856 18.902-10.154 28.864-2.357 10.211-3.553 20.758-3.553 31.348 0 76.546 62.275 138.821 138.821 138.821 28.647 0 56.148-8.654 79.532-25.026 22.853-16 40.188-38.172 50.131-64.12 1.483-3.868-.451-8.206-4.319-9.687z" fill="#000000" data-original="#000000" style="" class=""/><path d="m376.976 262.768c.802-4.034 1.71-8.606 2.586-13.635 5.67-32.629-18.76-58.694-20.335-60.332-5.347-5.956-15.49.474-12.457 7.819 2.381 6.275-2.274 16.606-4.271 20.074-8.255 11.411-17.836 16.454-27.015 14.207-7.267-1.781-13.071-8.193-14.116-15.592-1.185-8.399 3.722-16.214 13.814-22.004 22.97-13.171 36.677-37.562 35.774-63.654-.839-24.216-14.384-44.997-36.233-55.591-39.932-19.36-51.293-67.72-51.401-68.195-.833-3.731-4.341-6.232-8.143-5.821-3.801.419-6.678 3.631-6.678 7.455 0 32.185 5.691 44.388 13.569 61.276 3.601 7.718 7.681 16.466 12.112 28.971 4.66 13.141 4.745 24.189.251 32.835-5.908 11.368-18.248 15.627-20.127 16.219-2.173.321-15.307 1.576-22.563-13.651-1.505-3.164-.901-6.485.294-12.084 2.06-9.645 4.881-22.853-8.521-39.97-1.883-2.405-5.038-3.429-7.973-2.585-2.937.842-5.068 3.381-5.391 6.418-.02.181-2.231 18.348-13.444 28.006-18.206 15.664-23.731 37.643-14.419 57.358 1.77 3.746 6.237 5.35 9.984 3.578 3.745-1.769 5.348-6.239 3.578-9.984-7.534-15.952.557-30.906 10.643-39.584 5.579-4.806 9.519-10.788 12.286-16.567.03 3.444-.671 6.725-1.412 10.197-1.376 6.442-2.936 13.744.831 21.664 10.149 21.3 30.087 23.63 39.207 21.891.178-.034.354-.074.53-.121.819-.22 20.179-5.571 29.704-23.672 6.59-12.522 6.818-27.649.679-44.959-4.671-13.182-8.913-22.276-12.656-30.3-.148-.318-.296-.634-.441-.947 8.378 9.983 19.173 19.388 32.957 26.07 17.006 8.244 27.133 23.776 27.785 42.612.71 20.52-10.112 39.726-28.245 50.123-15.546 8.917-23.275 22.444-21.205 37.112 1.909 13.53 12.116 24.808 25.398 28.064 2.633.646 5.272.963 7.902.963 12.73 0 25.186-7.454 35.075-21.279.116-.162.226-.328.328-.499.478-.795 2.482-4.254 4.256-9.053 4.114 8.376 7.343 19.254 5.308 30.963-.845 4.85-1.696 9.137-2.521 13.281-4.168 20.974-6.921 34.829 5.344 59.644 8.106 16.807 12.216 34.871 12.216 53.691 0 4.057-.203 8.188-.604 12.278-.404 4.122 2.609 7.792 6.731 8.196.249.024.496.037.741.037 3.812-.001 7.075-2.896 7.455-6.769.449-4.575.677-9.199.677-13.743 0-21.096-4.611-41.352-13.736-60.273-10.036-20.309-8.055-30.277-4.108-50.138z" fill="#000000" data-original="#000000" style="" class=""/><path d="m489.75 161.334c.086-1.255.315-6.825-1.548-14.96-.925-4.037-4.949-6.56-8.985-5.636-4.037.925-6.561 4.948-5.636 8.985 1.287 5.62 1.246 9.475 1.217 10.345-.03.272-.046.55-.046.831 0 18.147-14.764 32.909-32.91 32.909-18.141 0-32.899-14.763-32.899-32.909 0-14.408 9.191-26.817 22.467-31.213 1.978 4.555 3.598 11.858-2.131 18.027-2.818 3.035-2.643 7.781.393 10.6 1.444 1.341 3.275 2.004 5.102 2.004 2.013 0 4.021-.806 5.498-2.396 13.392-14.422 6.932-32.597 1.351-40.713-3.258-6.352-6.295-13.406-5.438-23.26.792-9.11 4.429-15.733 8.996-20.528-.491 1.873-.874 3.791-1.139 5.739-1.916 14.082 2.413 28.119 11.878 38.513 1.222 1.34 2.383 2.694 3.45 4.027 2.589 3.231 7.31 3.752 10.543 1.162 3.231-2.59 3.753-7.311 1.162-10.543-1.266-1.579-2.635-3.178-4.067-4.749-6.465-7.1-9.418-16.718-8.103-26.389 1.215-8.932 5.885-16.746 12.492-20.904 3-1.888 4.269-5.616 3.043-8.941-1.227-3.326-4.621-5.342-8.117-4.828-14.389 2.095-42.326 14.434-45.082 46.142-.808 9.282.853 16.855 3.433 23.505-18.259 6.95-30.731 24.498-30.731 44.746 0 26.417 21.487 47.909 47.9 47.909 26.272 0 47.673-21.257 47.907-47.475z" fill="#000000" data-original="#000000" style="" class=""/><path d="m489.203 311.254c-6.461-7.096-9.413-16.709-8.099-26.377 1.214-8.933 5.884-16.75 12.492-20.91 2.998-1.888 4.267-5.616 3.041-8.941-1.227-3.325-4.62-5.336-8.117-4.827-14.387 2.095-42.323 14.433-45.081 46.143-.841 9.665 1.104 17.555 3.403 23.514-18.245 6.954-30.705 24.493-30.705 44.733 0 26.416 21.49 47.906 47.906 47.906 26.283 0 47.691-21.276 47.904-47.512.188-2.925.988-27.669-22.744-53.729zm7.793 52.495c-.031.275-.047.556-.047.839 0 18.145-14.762 32.906-32.906 32.906s-32.906-14.762-32.906-32.906c0-14.413 9.197-26.823 22.479-31.212 1.96 4.517 3.604 11.842-2.14 18.028-2.818 3.035-2.643 7.781.393 10.6 1.444 1.341 3.275 2.004 5.102 2.004 2.013 0 4.021-.806 5.498-2.396 13.403-14.435 6.921-32.628 1.337-40.733-3.252-6.351-6.278-13.406-5.423-23.238.793-9.111 4.43-15.735 8.999-20.53-.493 1.876-.876 3.796-1.141 5.747-1.914 14.079 2.413 28.11 11.872 38.497 19.239 21.124 18.984 40.175 18.883 42.394z" fill="#000000" data-original="#000000" style="" class=""/><path d="m95.265 107.566c-6.461-7.096-9.413-16.71-8.1-26.378 1.215-8.933 5.885-16.75 12.493-20.91 2.998-1.888 4.267-5.616 3.041-8.941-1.227-3.325-4.621-5.334-8.117-4.827-14.387 2.095-42.323 14.434-45.081 46.143-.841 9.666 1.104 17.556 3.402 23.515-18.245 6.954-30.705 24.493-30.705 44.732 0 26.416 21.49 47.907 47.906 47.907 26.283 0 47.691-21.278 47.904-47.513.189-2.927.988-27.67-22.743-53.728zm7.793 52.494c-.031.275-.047.556-.047.839 0 18.146-14.762 32.907-32.906 32.907s-32.906-14.762-32.906-32.907c0-14.409 9.193-26.817 22.471-31.21 1.978 4.555 3.597 11.856-2.132 18.025-2.818 3.035-2.643 7.78.393 10.6 1.444 1.341 3.275 2.004 5.102 2.004 2.013 0 4.021-.806 5.498-2.396 13.404-14.434 6.921-32.628 1.337-40.733-3.252-6.349-6.277-13.401-5.422-23.237.792-9.109 4.431-15.734 8.998-20.529-.492 1.875-.875 3.795-1.141 5.746-1.914 14.079 2.414 28.11 11.873 38.498 19.238 21.124 18.983 40.174 18.882 42.393z" fill="#000000" data-original="#000000" style="" class=""/><path d="m64.969 284.877c1.214-8.933 5.884-16.75 12.492-20.91 2.998-1.888 4.267-5.616 3.041-8.941s-4.622-5.336-8.117-4.827c-14.387 2.095-42.323 14.433-45.081 46.143-.841 9.666 1.104 17.555 3.402 23.514-18.245 6.954-30.705 24.493-30.705 44.733 0 26.416 21.49 47.906 47.906 47.906 26.29 0 47.702-21.287 47.906-47.529.188-3.004.939-27.702-22.746-53.711-6.46-7.097-9.412-16.71-8.098-26.378zm15.89 78.896c-.029.269-.044.541-.044.814 0 18.145-14.762 32.906-32.907 32.906s-32.906-14.762-32.906-32.906c0-14.41 9.193-26.818 22.471-31.21 1.978 4.555 3.597 11.856-2.132 18.025-2.818 3.035-2.643 7.781.393 10.6 1.444 1.341 3.275 2.004 5.102 2.004 2.013 0 4.021-.806 5.498-2.396 13.404-14.435 6.921-32.628 1.337-40.733-3.252-6.35-6.277-13.404-5.422-23.238.793-9.111 4.43-15.735 8.999-20.53-.493 1.876-.876 3.796-1.141 5.747-1.914 14.079 2.413 28.11 11.872 38.497 19.31 21.205 18.981 40.321 18.88 42.42z" fill="#000000" data-original="#000000" style="" class=""/><path d="m306.401 385.729c21.96 0 39.825-17.865 39.825-39.825 0-11.092-4.684-21.77-12.851-29.294-2.188-2.018-5.364-2.55-8.095-1.353l-54.218 23.778c-2.727 1.195-4.487 3.891-4.487 6.868.001 21.961 17.866 39.826 39.826 39.826zm19.979-54.574c3.15 4.234 4.847 9.334 4.847 14.749 0 13.688-11.137 24.825-24.825 24.825-12.08 0-22.173-8.675-24.378-20.121z" fill="#000000" data-original="#000000" style="" class=""/><path d="m240.904 339.036-54.218-23.778c-2.729-1.195-5.904-.665-8.095 1.353-8.167 7.524-12.851 18.202-12.851 29.294 0 21.96 17.865 39.825 39.825 39.825s39.825-17.865 39.825-39.825c.002-2.978-1.759-5.674-4.486-6.869zm-35.338 31.693c-13.688 0-24.825-11.137-24.825-24.825 0-5.415 1.696-10.515 4.847-14.749l44.357 19.453c-2.206 11.446-12.299 20.121-24.379 20.121z" fill="#000000" data-original="#000000" style="" class=""/><path d="m245.319 423.258v-12.703c0-4.143-3.357-7.5-7.5-7.5s-7.5 3.357-7.5 7.5v12.703h-21.366v-12.703c0-4.143-3.357-7.5-7.5-7.5s-7.5 3.357-7.5 7.5v13.187c-2.843 1.066-4.87 3.801-4.87 7.017 0 4.143 3.357 7.5 7.5 7.5h15.553v12.703c0 4.143 3.357 7.5 7.5 7.5s7.5-3.357 7.5-7.5v-12.703h21.366v12.703c0 4.143 3.357 7.5 7.5 7.5s7.5-3.357 7.5-7.5v-12.703h21.366v12.703c0 4.143 3.357 7.5 7.5 7.5s7.5-3.357 7.5-7.5v-12.703h15.553c4.143 0 7.5-3.357 7.5-7.5 0-3.216-2.027-5.95-4.87-7.017v-13.187c0-4.143-3.357-7.5-7.5-7.5s-7.5 3.357-7.5 7.5v12.703h-21.366v-12.703c0-4.143-3.357-7.5-7.5-7.5s-7.5 3.357-7.5 7.5v12.703z" fill="#000000" data-original="#000000" style="" class=""/></g></g></g></svg>
